#!OML:ASF H:\Dans Jumps\Project 1\Capture day 1\Session 1\subject.ASF
:FULLY-SPECIFIED
:DEGREES
468
root 0.596607 17.71 11.9085 9.54055 -1.57696 -1.33152
lowerback -3.76253 -0.255163 -0.321647
upperback 0.407808 -0.367235 1.64662
thorax 2.54162 -0.199202 1.85136
lowerneck -13.5974 -0.121136 -1.93555
upperneck 20.1491 -0.212817 2.18396
head 8.52015 -0.0233523 1.03337
rclavicle -3.42904e-015 5.96354e-015
rhumerus -30.6967 -13.7867 -77.9573
rradius 24.3602
rwrist 44.8561
rhand -16.9334 -26.9129
rfingers 7.12502
rthumb 9.2996 -56.6878
lclavicle -3.42904e-015 5.96354e-015
lhumerus -26.6252 -3.45268 86.0667
lradius 29.8223
lwrist 14.1757
lhand -25.1581 -11.499
lfingers 7.12502
lthumb 1.35887 18.4764
rfemur -14.6197 -5.01191 21.5633
rtibia 21.4821
rfoot -14.841 -0.316942
rtoes 14.7485
lfemur -13.7722 9.83815 -19.2935
ltibia 17.4188
lfoot -10.9543 4.6909
ltoes -3.61541
469
root 0.599212 17.7094 11.9111 9.54184 -1.5803 -1.35523
lowerback -3.82978 -0.268648 -0.314028
upperback 0.409121 -0.386157 1.65315
thorax 2.58142 -0.208794 1.85252
lowerneck -13.5872 -0.120518 -1.94011
upperneck 20.0854 -0.209587 2.18078
head 8.49666 -0.0225485 1.03293
rclavicle 4.22417e-015 -1.11319e-014
rhumerus -30.6179 -13.8205 -77.9873
rradius 24.3637
rwrist 44.7784
rhand -16.8489 -26.9148
rfingers 7.12502
rthumb 9.38115 -56.686
lclavicle 4.22417e-015 -1.11319e-014
lhumerus -26.3781 -3.50495 86.213
lradius 29.7095
lwrist 14.113
lhand -25.1722 -11.5066
lfingers 7.12502
lthumb 1.34525 18.4689
rfemur -14.6008 -5.00048 21.5774
rtibia 21.4611
rfoot -14.8412 -0.323916
rtoes 14.7431
lfemur -13.7749 9.82555 -19.277
ltibia 17.443
lfoot -10.9689 4.72544
ltoes -3.67115
470
root 0.601504 17.7088 11.913 9.53617 -1.58636 -1.36236
lowerback -3.88475 -0.279785 -0.325579
upperback 0.407055 -0.400803 1.65461
thorax 2.6108 -0.216416 1.85948
lowerneck -13.5463 -0.128516 -1.94483
upperneck 20.0066 -0.217605 2.17318
head 8.46277 -0.0276508 1.02959
rclavicle -6.60959e-015 4.77083e-015
rhumerus -30.5466 -13.8249 -78.029
rradius 24.3812
rwrist 44.6886
rhand -16.752 -26.9268
rfingers 7.12502
rthumb 9.47468 -56.6938
lclavicle -6.60959e-015 4.77083e-015
lhumerus -26.1516 -3.55647 86.3648
lradius 29.5894
lwrist 14.0191
lhand -25.1713 -11.4605
lfingers 7.12502
lthumb 1.3461 18.515
rfemur -14.5831 -4.97224 21.5729
rtibia 21.4521
rfoot -14.8453 -0.348064
rtoes 14.7213
lfemur -13.766 9.81693 -19.2763
ltibia 17.4527
lfoot -10.9766 4.74727
ltoes -3.70508
471
root 0.603482 17.708 11.9145 9.52223 -1.59798 -1.35891
lowerback -3.92233 -0.288141 -0.351008
upperback 0.400187 -0.410807 1.65255
thorax 2.62537 -0.221797 1.87095
lowerneck -13.484 -0.140993 -1.94742
upperneck 19.92 -0.231789 2.16194
head 8.42248 -0.0359699 1.02389
rclavicle -6.36111e-015 -8.34896e-015
rhumerus -30.4851 -13.7965 -78.0823
rradius 24.4097
rwrist 44.5944
rhand -16.6666 -26.9369
rfingers 7.12502
rthumb 9.55704 -56.7001
lclavicle -6.36111e-015 -8.34896e-015
lhumerus -25.9492 -3.61743 86.5243
lradius 29.4606
lwrist 13.9057
lhand -25.1599 -11.3763
lfingers 7.12502
lthumb 1.35714 18.5991
rfemur -14.5641 -4.92456 21.5562
rtibia 21.4542
rfoot -14.8531 -0.387761
rtoes 14.6946
lfemur -13.7429 9.81386 -19.2849
ltibia 17.4483
lfoot -10.9774 4.76139
ltoes -3.73655
